<?xml version="1.0" encoding="UTF-8" standalone="no"?>
<svg
   viewBox="0 0 521 68"
   version="1.1"
   id="svg51"
   sodipodi:docname="logo-navbar.svg"
   width="521"
   height="68"
   inkscape:version="1.1.1 (3bf5ae0d25, 2021-09-20)"
   xmlns:inkscape="http://www.inkscape.org/namespaces/inkscape"
   xmlns:sodipodi="http://sodipodi.sourceforge.net/DTD/sodipodi-0.dtd"
   xmlns="http://www.w3.org/2000/svg"
   xmlns:svg="http://www.w3.org/2000/svg">
  <sodipodi:namedview
     id="namedview53"
     pagecolor="#ffffff"
     bordercolor="#666666"
     borderopacity="1.0"
     inkscape:pageshadow="2"
     inkscape:pageopacity="0.0"
     inkscape:pagecheckerboard="0"
     showgrid="false"
     inkscape:zoom="2.2513562"
     inkscape:cx="171.23012"
     inkscape:cy="50.191968"
     inkscape:window-width="1920"
     inkscape:window-height="1011"
     inkscape:window-x="0"
     inkscape:window-y="0"
     inkscape:window-maximized="1"
     inkscape:current-layer="svg51" />
  <defs
     id="defs4">
    <style
       id="style2">.cls-1{fill:#ff4d4f;}.cls-2{fill:#f8c752;}.cls-3{fill:#2d9589;}.cls-4{fill:#3ed0c0;}.cls-5{fill:#4297dd;}.cls-6{fill:#2e3d99;}.cls-7{fill:#7365be;}.cls-8{fill:#a63242;}.cls-9{fill:#262626;}</style>
  </defs>
  <g
     id="Layer_1"
     data-name="Layer 1"
     transform="translate(-16.092659,-16.139391)">
    <path
       class="cls-1"
       d="M 82.565,41.181 A 33.871,33.871 0 0 0 50.434,16.351 v 16.225 a 17.561,17.561 0 0 1 8.907,32.418 l 8.29,13.948 A 33.871,33.871 0 0 0 82.565,41.181 Z"
       id="path6" />
    <path
       class="cls-2"
       d="M 49.542,32.576 V 16.351 a 33.786,33.786 0 0 0 -7.446,0.932 l 4,15.725 a 17.565,17.565 0 0 1 3.446,-0.432 z"
       id="path8" />
    <path
       class="cls-3"
       d="m 33.735,20.514 7.993,14.12 a 17.536,17.536 0 0 1 3.5,-1.406 l -4,-15.725 a 33.762,33.762 0 0 0 -7.493,3.011 z"
       id="path10" />
    <path
       class="cls-4"
       d="m 40.952,35.074 -7.993,-14.12 a 33.566,33.566 0 0 0 -9.634,8.431 l 12.936,9.794 a 17.416,17.416 0 0 1 4.691,-4.105 z"
       id="path12" />
    <path
       class="cls-5"
       d="m 22.787,30.1 a 34.008,34.008 0 0 0 -5.829,12.94 l 15.907,3.2 a 17.693,17.693 0 0 1 2.858,-6.344 z"
       id="path14" />
    <path
       class="cls-6"
       d="m 19.373,64.416 14.612,-7.054 a 17.683,17.683 0 0 1 -1.3,-10.253 l -15.907,-3.2 a 34,34 0 0 0 2.595,20.507 z"
       id="path16" />
    <path
       class="cls-7"
       d="M 36.649,81.17 42.858,66.18 A 17.539,17.539 0 0 1 34.373,58.166 L 19.761,65.22 a 33.743,33.743 0 0 0 16.888,15.95 z"
       id="path18" />
    <path
       class="cls-8"
       d="m 44.024,66.648 c -0.114,-0.04 -0.228,-0.083 -0.341,-0.127 l -6.209,14.991 c 0.344,0.137 0.692,0.269 1.04,0.395 A 33.663,33.663 0 0 0 66.864,79.4 l -8.29,-13.95 a 17.492,17.492 0 0 1 -14.55,1.198 z"
       id="path20" />
    <path
       class="cls-9"
       d="m 103.723,31.252 h 26.819 v 7.859 h -17.4 v 7.74 H 127 v 7.8 h -13.86 v 14.1 h -9.419 z"
       id="path22" />
    <path
       class="cls-9"
       d="m 149.2,65.39 c -1.98,2.34 -4.2,4.26 -8.039,4.26 -4.8,0 -8.52,-3.42 -8.52,-7.74 0,-5.279 3.96,-9.539 16.5,-9.9 v -0.54 c 0,-2.94 -1.5,-4.26 -4.92,-4.26 -2.88,0 -6.239,1.2 -9.479,2.82 l -1.92,-6.78 a 28.067,28.067 0 0 1 12.839,-3.3 c 9.66,0 12.84,4.38 12.72,12.18 l -0.06,8.279 c 0,1.92 0.36,2.1 2.28,2.281 l -0.9,6.6 c -6.06,0.78 -9.06,-0.84 -10.32,-3.9 z m -0.06,-9.059 c -5.7,0.66 -7.8,1.739 -7.8,4.2 0,1.8 1.44,3 3.48,3 a 5.7,5.7 0 0 0 4.32,-1.859 z"
       id="path24" />
    <path
       class="cls-9"
       d="m 178.482,69.65 c -9.24,0 -15.12,-5.16 -15.12,-14.639 0,-9.24 6,-15.06 15.359,-15.06 a 21.279,21.279 0 0 1 10.14,2.34 l -1.8,6.96 a 15.676,15.676 0 0 0 -7.38,-2.16 c -4.44,0 -6.9,3.12 -6.9,7.62 0,4.98 2.82,7.739 7.14,7.739 a 13.785,13.785 0 0 0 7.379,-2.1 l 1.38,7.02 c -2.339,1.44 -6.18,2.28 -10.198,2.28 z"
       id="path26" />
    <path
       class="cls-9"
       d="m 205.061,69.65 c -6.9,0 -10.619,-2.82 -10.26,-10.14 l 0.42,-10.619 -4.2,-0.72 0.18,-5.88 4.2,-1.38 0.121,-6.36 h 8.939 l -0.06,6.66 h 6.96 l -0.18,7.26 h -7.44 l -0.3,10.019 c -0.12,2.58 1.38,3.661 3.66,3.661 a 11.982,11.982 0 0 0 3.66,-0.721 l 1.08,7.2 a 20.934,20.934 0 0 1 -6.78,1.02 z"
       id="path28" />
    <path
       class="cls-9"
       d="m 226.421,69.65 c -3.84,0 -8.879,-0.9 -11.819,-2.46 l 1.8,-6.66 a 23.025,23.025 0 0 0 10.2,2.641 c 2.46,0 3.78,-0.841 3.78,-2.281 0,-1.559 -1.56,-2.159 -4.74,-2.88 -6.479,-1.259 -10.619,-3.659 -10.619,-9.119 0,-5.22 4.56,-8.94 12.3,-8.94 a 30.278,30.278 0 0 1 11.34,2.4 l -1.86,6.6 a 24.082,24.082 0 0 0 -9.6,-2.52 c -2.22,0 -3.42,0.72 -3.42,2.1 0,1.5 1.74,2.1 4.8,2.76 6.6,1.44 10.5,3.6 10.5,9.179 -0.002,5.04 -4.442,9.18 -12.662,9.18 z"
       id="path30" />
    <path
       class="cls-9"
       d="m 271.06,69.65 c -8.4,0 -14.819,-5.28 -14.819,-14.759 0,-9.479 6.72,-14.94 15.18,-14.94 8.4,0 14.759,5.4 14.759,14.76 0,9.36 -6.78,14.939 -15.12,14.939 z m 0.12,-22.679 c -3.779,0 -5.759,3.06 -5.759,7.86 0,4.739 2.04,7.739 5.819,7.739 3.779,0 5.76,-3 5.76,-7.8 0,-4.679 -2.04,-7.799 -5.82,-7.799 z"
       id="path32" />
    <path
       class="cls-9"
       d="m 309.519,68.75 v -16.5 c 0,-3.36 -1.5,-4.44 -3.96,-4.44 a 7.756,7.756 0 0 0 -5.039,2.1 v 18.84 h -9.24 V 41.331 l 9.24,-1.14 v 4.56 c 2.46,-2.82 5.759,-4.8 9.359,-4.8 5.58,0 8.88,3.66 8.88,9.6 v 19.2 z"
       id="path34" />
    <path
       class="cls-9"
       d="m 367.658,41.151 a 18.694,18.694 0 0 0 -9.48,-2.7 c -6.48,0 -10.679,4.38 -10.679,11.46 0,7.139 3.96,11.639 10.739,11.639 a 18.048,18.048 0 0 0 9.9,-3.06 l 1.98,8.46 c -2.94,1.62 -7.92,2.7 -12.3,2.7 -12,0 -19.919,-6.9 -19.919,-19.5 0,-12.12 7.86,-19.8 20.219,-19.8 a 28.9,28.9 0 0 1 12.42,2.82 z"
       id="path36" />
    <path
       class="cls-9"
       d="M 375.638,68.75 V 29.092 l 9.24,-1.14 v 40.8 z"
       id="path38" />
    <path
       class="cls-9"
       d="m 396.1,36.891 c -3.36,0 -5.46,-1.739 -5.46,-4.919 0,-3.24 2.1,-4.98 5.46,-4.98 3.42,0 5.46,1.74 5.46,4.98 -0.002,3.18 -2.042,4.919 -5.46,4.919 z M 391.48,68.75 V 41.331 l 9.24,-1.14 V 68.75 Z"
       id="path40" />
    <path
       class="cls-9"
       d="M 442.416,68.75 V 52.311 c 0,-3.36 -1.44,-4.5 -3.78,-4.5 a 6.831,6.831 0 0 0 -4.5,1.8 V 68.75 H 424.9 V 52.311 c 0,-3.36 -1.5,-4.5 -3.84,-4.5 a 6.879,6.879 0 0 0 -4.5,1.68 V 68.75 h -9.24 V 41.331 l 9.24,-1.14 v 3.9 c 2.46,-2.52 5.22,-4.14 8.88,-4.14 a 8.143,8.143 0 0 1 7.86,4.98 c 2.58,-3 5.879,-4.98 9.659,-4.98 5.4,0 8.7,3.66 8.7,9.66 V 68.75 Z"
       id="path42" />
    <path
       class="cls-9"
       d="m 473.2,65.39 c -1.98,2.34 -4.2,4.26 -8.039,4.26 -4.8,0 -8.52,-3.42 -8.52,-7.74 0,-5.279 3.96,-9.539 16.5,-9.9 v -0.54 c 0,-2.94 -1.5,-4.26 -4.92,-4.26 -2.879,0 -6.239,1.2 -9.479,2.82 l -1.92,-6.78 a 28.071,28.071 0 0 1 12.839,-3.3 c 9.66,0 12.84,4.38 12.72,12.18 l -0.06,8.279 c 0,1.92 0.36,2.1 2.28,2.281 l -0.9,6.6 c -6.06,0.78 -9.06,-0.84 -10.32,-3.9 z m -0.06,-9.059 c -5.7,0.66 -7.8,1.739 -7.8,4.2 0,1.8 1.439,3 3.48,3 a 5.7,5.7 0 0 0 4.319,-1.859 z"
       id="path44" />
    <path
       class="cls-9"
       d="m 500.016,69.65 c -6.9,0 -10.62,-2.82 -10.26,-10.14 l 0.42,-10.619 -4.2,-0.72 0.18,-5.88 4.2,-1.38 0.12,-6.36 h 8.94 l -0.06,6.66 h 6.96 l -0.181,7.26 H 498.7 l -0.3,10.019 c -0.12,2.58 1.38,3.661 3.659,3.661 a 11.976,11.976 0 0 0 3.66,-0.721 l 1.081,7.2 a 20.939,20.939 0 0 1 -6.784,1.02 z"
       id="path46" />
    <path
       class="cls-9"
       d="m 518.676,56.991 c 0.3,3.72 2.88,5.879 7.38,5.879 a 18.887,18.887 0 0 0 9.119,-2.7 l 0.9,7.139 a 25.013,25.013 0 0 1 -10.859,2.28 c -9.48,0 -15.6,-5.28 -15.6,-14.579 0,-9.12 6.24,-15.06 15.12,-15.06 7.919,0 12.239,4.74 12.239,11.7 a 20.883,20.883 0 0 1 -0.6,4.919 l -17.7,0.3 z m 9.72,-4.8 v -0.54 c 0,-3.3 -1.38,-5.34 -4.26,-5.34 -3.18,0 -5.1,2.76 -5.4,5.94 z"
       id="path48" />
  </g>
</svg>
